<svg id="svg" version="1.1" xmlns="http://www.w3.org/2000/svg" xmlns:xlink="http://www.w3.org/1999/xlink" width="400" height="400" viewBox="0, 0, 400,400"><g id="svgg"><path id="path0" d="M91.187 93.129 C 90.534 93.640,90.000 94.315,90.000 94.629 C 90.000 94.943,89.865 95.200,89.700 95.200 C 89.535 95.200,89.438 143.935,89.485 203.500 L 89.571 311.800 90.731 313.200 L 91.891 314.600 203.045 314.800 C 264.180 314.910,314.335 314.944,314.500 314.876 C 314.665 314.808,314.800 264.724,314.800 203.578 L 314.800 92.403 203.587 92.301 L 92.374 92.200 91.187 93.129 M308.301 203.500 L 308.200 305.400 203.600 305.400 L 99.000 305.400 98.899 203.500 L 98.798 101.600 203.600 101.600 L 308.402 101.600 308.301 203.500 " stroke="none" fill="#332413" fill-rule="evenodd"></path><path id="path1" d="M103.300 101.898 L 99.200 102.028 99.200 203.414 L 99.200 304.800 145.500 304.846 C 170.965 304.872,217.900 304.894,249.800 304.896 L 307.800 304.899 307.800 203.349 L 307.800 101.800 261.500 101.797 L 215.200 101.795 261.400 101.899 L 307.600 102.003 307.513 193.302 C 307.465 243.516,307.377 282.260,307.318 279.400 C 307.258 276.540,307.024 268.980,306.798 262.600 C 306.571 256.220,306.130 242.270,305.816 231.600 C 305.503 220.930,305.049 206.980,304.807 200.600 C 304.566 194.220,304.200 183.150,303.995 176.000 C 303.789 168.850,303.357 153.730,303.033 142.400 C 302.159 111.767,302.242 112.624,299.881 110.051 C 297.420 107.369,302.053 107.694,242.400 106.020 C 235.250 105.819,226.295 105.547,222.500 105.416 L 215.600 105.177 215.599 193.889 C 215.599 242.680,215.480 287.595,215.335 293.700 L 215.071 304.800 203.601 304.800 L 192.131 304.800 191.865 285.534 C 191.719 274.938,191.600 229.848,191.600 185.334 L 191.600 104.400 188.900 104.374 C 187.415 104.360,181.340 104.187,175.400 103.991 C 160.440 103.496,125.292 102.454,119.000 102.318 C 116.140 102.256,131.350 102.113,152.800 102.000 L 191.800 101.794 149.600 101.781 C 126.390 101.774,105.555 101.827,103.300 101.898 " stroke="none" fill="#d6994e" fill-rule="evenodd"></path><path id="path2" d="M91.069 91.682 C 88.677 92.977,88.800 86.878,88.800 204.577 C 88.800 322.212,88.704 316.183,90.562 315.470 C 90.876 315.349,91.244 315.539,91.379 315.891 C 91.680 316.674,313.759 316.401,314.544 315.616 C 314.832 315.328,280.802 315.200,203.842 315.200 C 81.107 315.200,91.432 315.424,89.887 312.733 C 89.242 311.609,89.200 304.892,89.200 203.196 L 89.200 94.857 90.512 93.466 C 92.410 91.454,85.826 91.556,205.100 91.683 C 278.107 91.761,314.755 91.666,314.667 91.400 C 314.578 91.135,277.123 90.975,203.567 90.926 L 92.600 90.853 91.069 91.682 M191.994 101.894 C 191.768 113.200,192.124 279.084,192.375 279.335 C 192.574 279.534,192.642 279.948,192.524 280.253 C 192.369 280.657,192.515 280.732,193.055 280.527 C 193.718 280.276,193.734 280.311,193.200 280.851 C 192.695 281.361,192.600 283.248,192.600 292.743 C 192.600 302.342,192.690 304.085,193.200 304.402 C 193.540 304.614,198.216 304.737,204.000 304.688 L 214.200 304.600 214.310 297.430 C 214.370 293.486,214.591 290.051,214.802 289.797 C 215.044 289.506,215.194 254.709,215.208 195.568 L 215.230 101.800 203.615 101.694 C 197.227 101.636,191.997 101.726,191.994 101.894 M203.822 162.000 C 203.628 164.476,203.674 165.600,203.970 165.600 C 204.206 165.600,204.400 165.960,204.400 166.400 C 204.400 167.655,203.727 167.336,203.450 165.950 C 203.013 163.766,203.156 158.400,203.652 158.400 C 203.974 158.400,204.023 159.426,203.822 162.000 M204.400 174.000 C 204.400 178.136,204.288 179.200,203.852 179.200 C 202.852 179.200,202.671 171.574,203.657 170.965 C 203.846 170.848,204.000 170.313,204.000 169.776 C 204.000 169.239,204.090 168.800,204.200 168.800 C 204.310 168.800,204.400 171.140,204.400 174.000 M204.000 187.000 C 204.000 188.733,203.831 190.000,203.600 190.000 C 203.152 190.000,203.081 187.774,203.457 185.500 C 203.833 183.224,204.000 183.686,204.000 187.000 M204.387 193.067 C 204.402 194.555,204.060 195.600,203.557 195.600 C 203.361 195.600,203.200 194.396,203.200 192.924 C 203.200 190.484,203.252 190.316,203.787 191.024 C 204.110 191.451,204.380 192.370,204.387 193.067 M203.892 200.900 C 203.868 204.285,203.811 204.651,203.567 203.000 C 203.142 200.136,203.139 196.800,203.561 196.800 C 203.759 196.800,203.908 198.645,203.892 200.900 M203.945 208.300 C 203.983 209.785,204.123 211.767,204.254 212.705 C 204.554 214.854,204.058 219.683,203.568 219.380 C 203.107 219.095,203.077 205.600,203.537 205.600 C 203.722 205.600,203.906 206.815,203.945 208.300 M204.400 232.824 C 204.400 236.426,204.267 237.965,203.973 237.783 C 203.738 237.638,203.634 237.289,203.741 237.008 C 203.849 236.727,203.786 236.341,203.601 236.149 C 202.758 235.274,202.936 227.600,203.800 227.600 C 204.303 227.600,204.400 228.447,204.400 232.824 M204.400 240.424 C 204.400 240.877,204.220 241.136,204.000 241.000 C 203.780 240.864,203.600 240.493,203.600 240.176 C 203.600 239.859,203.780 239.600,204.000 239.600 C 204.220 239.600,204.400 239.971,204.400 240.424 M203.972 248.300 C 203.953 250.628,203.829 251.532,203.600 251.000 C 203.113 249.866,203.113 244.800,203.600 244.800 C 203.838 244.800,203.989 246.215,203.972 248.300 M204.067 285.198 C 204.330 285.983,203.915 289.600,203.561 289.600 C 203.363 289.600,203.200 288.520,203.200 287.200 C 203.200 285.105,203.671 284.017,204.067 285.198 " stroke="none" fill="#ebc494" fill-rule="evenodd"></path><path id="path3" d="M152.800 102.000 C 131.350 102.113,116.140 102.256,119.000 102.318 C 125.292 102.454,160.440 103.496,175.400 103.991 C 181.340 104.187,187.415 104.360,188.900 104.374 L 191.600 104.400 191.600 185.334 C 191.600 287.679,191.796 304.802,192.965 304.794 C 193.647 304.789,193.690 304.718,193.200 304.408 C 192.690 304.086,192.600 302.340,192.600 292.743 C 192.600 283.248,192.695 281.361,193.200 280.851 C 193.734 280.311,193.718 280.276,193.055 280.527 C 192.515 280.732,192.369 280.657,192.524 280.253 C 192.642 279.948,192.574 279.534,192.375 279.335 C 192.160 279.120,192.005 242.776,191.994 190.286 C 191.984 141.509,191.936 101.644,191.888 101.697 C 191.840 101.750,174.250 101.887,152.800 102.000 M215.457 104.459 C 215.316 105.811,215.200 147.985,215.200 198.179 C 215.200 255.587,215.058 289.582,214.818 289.822 C 214.259 290.381,214.083 304.801,214.636 304.800 C 215.424 304.800,215.598 284.732,215.599 193.889 L 215.600 105.177 222.500 105.416 C 226.295 105.547,235.250 105.819,242.400 106.020 C 301.402 107.676,297.013 107.392,299.549 109.719 C 302.226 112.176,302.150 111.469,303.033 142.400 C 303.357 153.730,303.789 168.850,303.995 176.000 C 304.200 183.150,304.566 194.220,304.807 200.600 C 305.049 206.980,305.503 220.930,305.816 231.600 C 306.130 242.270,306.571 256.220,306.798 262.600 C 307.024 268.980,307.258 276.540,307.318 279.400 C 307.377 282.260,307.465 243.515,307.513 193.300 L 307.600 102.000 261.657 102.000 L 215.714 102.000 215.457 104.459 M203.200 161.550 C 203.200 163.283,203.313 165.263,203.450 165.950 C 203.727 167.336,204.400 167.655,204.400 166.400 C 204.400 165.960,204.206 165.600,203.970 165.600 C 203.674 165.600,203.628 164.476,203.822 162.000 C 204.023 159.426,203.974 158.400,203.652 158.400 C 203.354 158.400,203.200 159.477,203.200 161.550 M204.000 169.776 C 204.000 170.313,203.846 170.848,203.657 170.965 C 202.671 171.574,202.852 179.200,203.852 179.200 C 204.288 179.200,204.400 178.136,204.400 174.000 C 204.400 171.140,204.310 168.800,204.200 168.800 C 204.090 168.800,204.000 169.239,204.000 169.776 M203.457 185.500 C 203.081 187.774,203.152 190.000,203.600 190.000 C 203.831 190.000,204.000 188.733,204.000 187.000 C 204.000 183.686,203.833 183.224,203.457 185.500 M203.200 192.924 C 203.200 194.396,203.361 195.600,203.557 195.600 C 204.519 195.600,204.689 192.216,203.787 191.024 C 203.252 190.316,203.200 190.484,203.200 192.924 M203.235 198.900 C 203.313 203.564,203.861 205.234,203.892 200.900 C 203.908 198.645,203.759 196.800,203.561 196.800 C 203.362 196.800,203.216 197.745,203.235 198.900 M203.200 212.376 C 203.200 216.103,203.365 219.255,203.568 219.380 C 204.058 219.683,204.554 214.854,204.254 212.705 C 204.123 211.767,203.983 209.785,203.945 208.300 C 203.797 202.645,203.200 205.911,203.200 212.376 M203.117 229.300 C 202.982 232.096,203.242 235.776,203.601 236.149 C 203.786 236.341,203.849 236.727,203.741 237.008 C 203.634 237.289,203.738 237.638,203.973 237.783 C 204.267 237.965,204.400 236.426,204.400 232.824 C 204.400 228.447,204.303 227.600,203.800 227.600 C 203.374 227.600,203.176 228.092,203.117 229.300 M203.600 240.176 C 203.600 240.493,203.780 240.864,204.000 241.000 C 204.220 241.136,204.400 240.877,204.400 240.424 C 204.400 239.971,204.220 239.600,204.000 239.600 C 203.780 239.600,203.600 239.859,203.600 240.176 M203.228 247.500 C 203.272 251.731,203.939 252.448,203.972 248.300 C 203.989 246.215,203.838 244.800,203.600 244.800 C 203.370 244.800,203.212 245.948,203.228 247.500 M203.200 287.200 C 203.200 290.101,203.867 290.409,204.061 287.598 C 204.215 285.381,204.112 284.800,203.567 284.800 C 203.365 284.800,203.200 285.880,203.200 287.200 " stroke="none" fill="#e9c46d" fill-rule="evenodd"></path><path id="path4" d="M93.400 92.000 C 92.951 92.193,141.450 92.339,203.800 92.332 C 264.960 92.326,314.550 92.176,314.000 92.000 C 312.645 91.566,94.410 91.566,93.400 92.000 M89.397 203.800 C 89.397 262.980,89.443 287.130,89.500 257.468 C 89.557 227.805,89.557 179.385,89.500 149.868 C 89.443 120.350,89.397 144.620,89.397 203.800 M98.899 203.500 L 99.000 305.400 203.600 305.400 L 308.200 305.400 308.301 203.500 C 308.356 147.455,308.266 101.600,308.101 101.600 C 307.935 101.600,307.800 147.342,307.800 203.249 L 307.800 304.899 249.800 304.896 C 217.900 304.894,170.965 304.872,145.500 304.846 L 99.200 304.800 99.200 203.414 L 99.200 102.028 103.300 101.898 L 107.400 101.769 103.099 101.684 L 98.798 101.600 98.899 203.500 M90.190 313.231 C 90.999 315.339,83.143 315.209,202.862 315.102 L 313.000 315.004 202.532 314.802 L 92.064 314.600 91.010 313.609 C 90.421 313.056,90.059 312.889,90.190 313.231 " stroke="none" fill="#936c3c" fill-rule="evenodd"></path></g></svg>